<svg xmlns="http://www.w3.org/2000/svg" viewBox="0 0 960 600" role="img" aria-labelledby="title desc">
  <title id="title">2048 themed thumbnail</title>
  <desc id="desc">A warm 2048 board with numbered merge tiles.</desc>
  <rect width="960" height="600" fill="#faf2de"/>
  <rect x="150" y="68" width="660" height="464" rx="28" fill="#bba890" stroke="#4d4035" stroke-width="14"/>
  <g font-family="Arial, sans-serif" font-weight="900" text-anchor="middle" fill="#4d4035">
    <rect x="184" y="102" width="128" height="128" rx="12" fill="#eee4da"/>
    <text x="248" y="186" font-size="64">2</text>
    <rect x="328" y="102" width="128" height="128" rx="12" fill="#ede0c8"/>
    <text x="392" y="186" font-size="64">4</text>
    <rect x="472" y="102" width="128" height="128" rx="12" fill="#f2b179"/>
    <text x="536" y="186" font-size="64" fill="#fff">8</text>
    <rect x="616" y="102" width="128" height="128" rx="12" fill="#f59563"/>
    <text x="680" y="186" font-size="58" fill="#fff">16</text>
    <rect x="184" y="246" width="128" height="128" rx="12" fill="#f67c5f"/>
    <text x="248" y="330" font-size="58" fill="#fff">32</text>
    <rect x="328" y="246" width="128" height="128" rx="12" fill="#f65e3b"/>
    <text x="392" y="330" font-size="58" fill="#fff">64</text>
    <rect x="472" y="246" width="272" height="128" rx="12" fill="#edcf72"/>
    <text x="608" y="330" font-size="64" fill="#fff">2048</text>
    <rect x="184" y="390" width="128" height="82" rx="12" fill="#edcc61"/>
    <rect x="328" y="390" width="128" height="82" rx="12" fill="#edc850"/>
    <rect x="472" y="390" width="128" height="82" rx="12" fill="#edc53f"/>
    <rect x="616" y="390" width="128" height="82" rx="12" fill="#edc22e"/>
  </g>
</svg>
