<svg xmlns="http://www.w3.org/2000/svg" viewBox="0 0 960 600" role="img" aria-labelledby="title desc">
  <title id="title">Cookie Clicker themed thumbnail</title>
  <desc id="desc">A giant cookie with cursor clicks and upgrade panels.</desc>
  <rect width="960" height="600" fill="#fff0d8"/>
  <rect x="640" y="70" width="210" height="420" rx="18" fill="#fff8ec" stroke="#4b2b18" stroke-width="12"/>
  <path d="M676 132h138M676 196h108M676 260h138M676 324h98M676 388h126" stroke="#d98734" stroke-width="18" stroke-linecap="round"/>
  <circle cx="390" cy="300" r="188" fill="#c9792f" stroke="#4b2b18" stroke-width="16"/>
  <circle cx="314" cy="226" r="24" fill="#5f331a"/>
  <circle cx="430" cy="202" r="30" fill="#5f331a"/>
  <circle cx="496" cy="310" r="22" fill="#5f331a"/>
  <circle cx="370" cy="384" r="28" fill="#5f331a"/>
  <circle cx="270" cy="326" r="20" fill="#5f331a"/>
  <path d="M188 92l72 174 46-74 78 78 46-46-78-78 82-42z" fill="#ffffff" stroke="#11142a" stroke-width="12" stroke-linejoin="round"/>
  <path d="M122 482c70-32 140-32 210 0" fill="none" stroke="#ffd447" stroke-width="18" stroke-linecap="round"/>
</svg>
