<svg xmlns="http://www.w3.org/2000/svg" viewBox="0 0 960 600" role="img" aria-labelledby="title desc">
  <title id="title">Drift Hunters game thumbnail</title>
  <desc id="desc">Stylized sports car drifting on a charcoal track.</desc>
  <rect width="960" height="600" fill="#fff0f7"/>
  <path d="M0 416c184-80 372-95 562-44 126 34 252 82 398 44v184H0z" fill="#ffd447"/>
  <path d="M168 392c176-104 384-105 624-12" fill="none" stroke="#ffffff" stroke-width="82" stroke-linecap="round"/>
  <path d="M302 332h260l118 70H222z" fill="#ff5f6d"/>
  <path d="M384 276h150l76 56H326z" fill="#12d9ff"/>
  <path d="M352 332l42-44h124l48 44z" fill="#11142a"/>
  <circle cx="334" cy="413" r="52" fill="#11142a"/>
  <circle cx="334" cy="413" r="24" fill="#ffffff"/>
  <circle cx="612" cy="413" r="52" fill="#11142a"/>
  <circle cx="612" cy="413" r="24" fill="#ffffff"/>
  <path d="M706 306c50-26 94-34 132-24M724 354c70-8 119 2 148 30" stroke="#b7ff3c" stroke-width="14" stroke-linecap="round"/>
</svg>
