<svg xmlns="http://www.w3.org/2000/svg" viewBox="0 0 960 600" role="img" aria-labelledby="title desc">
  <title id="title">Polytrack game thumbnail</title>
  <desc id="desc">Abstract low-poly racing track with cyan road lines.</desc>
  <rect width="960" height="600" fill="#e8fbff"/>
  <path d="M0 600L220 315 420 600z" fill="#ffd447"/>
  <path d="M348 600L624 242 960 600z" fill="#ffb0c8"/>
  <path d="M0 178l256 96 170-88 226 122 308-134v426H0z" fill="#ffffff"/>
  <path d="M142 535C330 314 460 222 599 260c114 31 165 139 252 246" fill="none" stroke="#00b8ff" stroke-width="80" stroke-linecap="round"/>
  <path d="M142 535C330 314 460 222 599 260c114 31 165 139 252 246" fill="none" stroke="#11142a" stroke-width="48" stroke-linecap="round"/>
  <path d="M236 442l84-73M440 292l95-26M658 292l76 64" stroke="#a7f400" stroke-width="12" stroke-linecap="round"/>
  <path d="M120 138h184v40H120zM120 202h112v22H120z" fill="#8b3dff"/>
</svg>
