<svg xmlns="http://www.w3.org/2000/svg" viewBox="0 0 960 600" role="img" aria-labelledby="title desc">
  <title id="title">Polytrack themed thumbnail</title>
  <desc id="desc">A low-poly racing track with checkpoints and a small time-trial car.</desc>
  <rect width="960" height="600" fill="#dff6ff"/>
  <path d="M0 600 178 308 318 600z" fill="#75d77b"/>
  <path d="M282 600 548 216 960 600z" fill="#b7ff6a"/>
  <path d="M0 210 246 292 430 182 660 304 960 166v434H0z" fill="#f8fbff"/>
  <path d="M118 514C282 332 418 238 562 260c124 19 204 104 284 232" fill="none" stroke="#49bbff" stroke-width="86" stroke-linecap="round"/>
  <path d="M118 514C282 332 418 238 562 260c124 19 204 104 284 232" fill="none" stroke="#1d2345" stroke-width="52" stroke-linecap="round"/>
  <path d="M214 414h86M396 294h86M626 312h86M750 426h86" stroke="#ffffff" stroke-width="14" stroke-linecap="round"/>
  <path d="M444 258h118l42 54H402z" fill="#ff4d7d" stroke="#1d2345" stroke-width="10"/>
  <circle cx="440" cy="318" r="20" fill="#1d2345"/>
  <circle cx="584" cy="318" r="20" fill="#1d2345"/>
  <path d="M132 120h192v46H132zM132 190h128v24H132z" fill="#8b3dff"/>
</svg>
