<svg xmlns="http://www.w3.org/2000/svg" viewBox="0 0 960 600" role="img" aria-labelledby="title desc">
  <title id="title">Slope themed thumbnail</title>
  <desc id="desc">A neon ball racing down a green 3D slope course.</desc>
  <rect width="960" height="600" fill="#101726"/>
  <path d="M480 0v600M0 300h960M140 0 0 152M320 0 0 344M640 0 960 344M820 0 960 152" stroke="#1f3844" stroke-width="4"/>
  <path d="M116 520l238-292h252l238 292z" fill="#142033" stroke="#39ff88" stroke-width="10"/>
  <path d="M242 462l156-186h164l156 186z" fill="#39ff88"/>
  <path d="M332 430l98-114h100l98 114z" fill="#11142a"/>
  <circle cx="480" cy="260" r="70" fill="#9dff2f" stroke="#e8ffe8" stroke-width="14"/>
  <path d="M154 160h178M628 160h178M206 222h94M662 222h94" stroke="#39ff88" stroke-width="16" stroke-linecap="round"/>
</svg>
